<svg width="137" height="133" viewBox="0 0 137 133" fill="none" xmlns="http://www.w3.org/2000/svg">
<path d="M40.7774 64.5911C40.7774 64.5911 37.6407 58.1986 34.504 64.5911C34.504 64.5911 25.0938 78.9743 25.0938 88.5631C25.0938 91.7593 26.6621 99.75 37.6407 99.75C48.6193 99.75 50.1876 91.7593 50.1876 88.5631C50.1876 78.9743 40.7774 64.5911 40.7774 64.5911Z" fill="#494748"/>
<path d="M30.2762 14.25V13.6679L29.77 13.3804C27.836 12.2822 26.7004 10.9532 26.1468 9.63286C25.5938 8.31405 25.5926 6.93794 26.0371 5.67594C26.9284 3.14518 29.6589 1 33.4585 1C34.401 1 36.4026 1.27836 38.9717 1.72726C41.5057 2.17002 44.5004 2.76144 47.3716 3.35434C50.2415 3.94696 52.9817 4.53975 55.0049 4.98449C56.0164 5.20683 56.8483 5.39209 57.4271 5.52173C57.7166 5.58654 57.9427 5.63745 58.0964 5.67213L58.2615 5.70944C60.9353 6.74723 61.6806 8.67985 61.4811 10.2658C61.265 11.9839 60.0101 13.25 58.5524 13.25H46.0055H45.0055V14.25L45.0054 21.375L45.0055 21.382C45.0162 22.9054 45.7077 23.921 46.4041 24.5355C46.7439 24.8353 47.0809 25.0376 47.3344 25.166C47.4621 25.2307 47.5713 25.278 47.6529 25.3106C47.6665 25.316 47.6792 25.321 47.6913 25.3256C47.7157 25.335 47.7369 25.3428 47.7547 25.3491C47.7679 25.3538 47.7793 25.3577 47.7886 25.3609L47.801 25.365L47.8061 25.3666L47.8083 25.3673L47.8093 25.3677C47.8097 25.3678 47.81 25.3679 47.916 25.0352L47.878 25.3926C62.8279 28.6078 74.2816 43.5897 74.2816 61.75V114C74.2816 118.812 72.5974 123.405 69.6312 126.774C66.6687 130.139 62.68 132 58.5524 132H16.7293C12.6016 132 8.61294 130.139 5.65042 126.774C2.68428 123.405 1 118.812 1 114V61.7501C1 61.7501 1 61.75 1 61.75C1.00095 53.1064 3.65629 44.7479 8.48891 38.113C13.3201 31.48 20.0155 26.9949 27.4053 25.3923L27.4698 25.3783L27.5318 25.356C27.8496 25.2417 30.2762 24.2771 30.2762 21.375V14.25ZM41.8231 32.25H33.4585C26.4939 32.25 19.8448 35.3933 14.9639 40.9366C10.0867 46.4759 7.36463 53.9643 7.36463 61.75V114C7.36463 116.747 8.32416 119.402 10.064 121.378C11.8075 123.358 14.2016 124.5 16.7293 124.5H58.5524C61.0801 124.5 63.4741 123.358 65.2176 121.378C66.9575 119.402 67.917 116.747 67.917 114V61.75C67.917 53.9643 65.195 46.4759 60.3177 40.9366C55.4369 35.3933 48.7877 32.25 41.8231 32.25Z" fill="#494748" stroke="white" stroke-width="2"/>
<mask id="mask0_1319_242" style="mask-type:luminance" maskUnits="userSpaceOnUse" x="84" y="37" width="53" height="93">
<path d="M129.235 53.5737H91.5942C90.5959 53.5737 89.6385 54.0241 88.9326 54.8258C88.2267 55.6276 87.8301 56.7149 87.8301 57.8487V121.974C87.8301 123.108 88.2267 124.195 88.9326 124.997C89.6385 125.798 90.5959 126.249 91.5942 126.249H129.235C130.233 126.249 131.191 125.798 131.897 124.997C132.603 124.195 132.999 123.108 132.999 121.974V57.8487C132.999 56.7149 132.603 55.6276 131.897 54.8258C131.191 54.0241 130.233 53.5737 129.235 53.5737Z" fill="white" stroke="white" stroke-width="7" stroke-linejoin="round"/>
<path d="M87.8301 70.6763H132.999" stroke="black" stroke-width="7" stroke-linecap="round"/>
<path d="M87.8301 64.2612V77.0862M132.999 64.2612V77.0862" stroke="white" stroke-width="7" stroke-linecap="round" stroke-linejoin="round"/>
<path d="M125.466 40.75H95.3535V53.575H125.466V40.75Z" fill="white" stroke="white" stroke-width="7" stroke-linejoin="round"/>
<path d="M102.885 98.4631H117.941M110.413 89.9131V107.013" stroke="black" stroke-width="7" stroke-linecap="round"/>
</mask>
<g mask="url(#mask0_1319_242)">
<path d="M65.2441 32.1987H155.582V134.799H65.2441V32.1987Z" fill="#494748"/>
</g>
</svg>
