<svg width="130" height="133" viewBox="0 0 130 133" fill="none" xmlns="http://www.w3.org/2000/svg">
<path fill-rule="evenodd" clip-rule="evenodd" d="M100.275 31.4436C100.275 43.9121 97.1772 60.1741 92.411 57.7063C90.4621 64.071 86.3704 69.565 80.8306 73.2554C75.2909 76.9458 68.6447 78.6051 62.0204 77.9517C55.3962 77.2982 49.2023 74.3722 44.4904 69.6705C39.7785 64.9688 36.8392 58.7812 36.1714 52.1584C31.4413 43.8833 25.2377 27.3007 41.1862 14.3747C41.4744 14.281 41.6473 13.5029 41.9067 12.3573C42.8938 8.02338 45.0806 -1.60987 58.8748 0.23104C69.5131 1.64685 100.275 7.13715 100.275 31.4436ZM86.5641 39.3044C86.5641 39.3044 84.9357 44.067 86.4632 49.3736C86.4434 55.0317 84.2057 60.4565 80.2307 64.4832C76.2557 68.5098 70.8603 70.8173 65.2029 70.9102C59.5455 71.0032 54.0772 68.8741 49.9721 64.9801C45.8671 61.0861 43.4525 55.7377 43.2469 50.0833C43.7692 48.1019 43.7692 44.7479 43.7656 41.0193C43.762 34.2933 43.7548 26.3568 46.835 23.1217C68.4108 37.4923 86.5641 39.3044 86.5641 39.3044Z" fill="#494748"/>
<path d="M25.2179 111.385C25.2179 107.487 27.2822 104.071 30.3804 102.169C30.2624 101.721 30.1519 101.27 30.049 100.818C29.5023 98.3572 29.0755 95.8709 28.7701 93.3682C28.4605 90.9705 28.2741 88.5584 28.2117 86.1415C13.0052 92.1109 0 102.515 0 113.438V133H129.692V113.438C129.692 102.976 117.768 92.9936 103.401 86.9233V87.0241C103.466 89.2217 103.343 91.7435 103.105 94.168C102.889 96.416 102.569 98.6568 102.183 100.577H104.474C105.143 100.577 105.799 100.764 106.368 101.116C106.936 101.468 107.396 101.971 107.695 102.569L111.298 109.774C111.55 110.275 111.679 110.826 111.679 111.385V118.59C111.679 119.545 111.3 120.462 110.624 121.137C109.949 121.813 109.032 122.192 108.077 122.192H100.872V114.987H104.474V112.235L102.248 107.782H92.2904L90.064 112.235V114.987H93.6666V122.192H86.4615C85.506 122.192 84.5897 121.813 83.9141 121.137C83.2385 120.462 82.8589 119.545 82.8589 118.59V111.385C82.8589 110.826 82.9886 110.275 83.2408 109.774L86.8434 102.569C87.1423 101.971 87.602 101.468 88.1708 101.116C88.7396 100.764 89.3952 100.577 90.064 100.577H94.8014C94.8807 100.267 94.9599 99.9249 95.0392 99.5466C95.3994 97.8498 95.7201 95.6991 95.9362 93.4763C96.1524 91.2499 96.2532 89.0416 96.1992 87.2259C96.1857 86.4737 96.1268 85.723 96.0227 84.9779C95.9434 84.4663 95.8642 84.2321 95.8498 84.1817C95.8462 84.1709 95.8426 84.1673 95.8498 84.1745L95.8606 84.1709C93.9491 83.577 92.0155 83.0567 90.064 82.611C88.252 82.1967 86.3786 84.6897 85.5608 86.2496H43.2307C43.1255 86.0488 43.0223 85.8471 42.9209 85.6444C42.1572 84.1241 41.2169 82.2471 39.6282 82.611C38.2412 82.9244 36.8542 83.2847 35.4672 83.681C35.4225 84.3128 35.4033 84.9461 35.4096 85.5795C35.424 87.5717 35.6149 90.0107 35.9211 92.4748C36.2274 94.9318 36.6417 97.3239 37.074 99.2116C37.1965 99.7556 37.3189 100.246 37.4342 100.667C39.4939 100.938 41.4318 101.796 43.0161 103.14C44.6004 104.484 45.7639 106.255 46.3673 108.243C46.9707 110.231 46.9885 112.351 46.4185 114.348C45.8484 116.346 44.7148 118.137 43.1532 119.507C41.5916 120.877 39.6683 121.768 37.6135 122.073C35.5587 122.378 33.4595 122.085 31.5671 121.228C29.6748 120.371 28.0695 118.987 26.9435 117.241C25.8174 115.495 25.2183 113.462 25.2179 111.385Z" fill="#494748"/>
<path d="M39.629 111.384C39.629 113.452 37.9646 115.041 36.0264 115.041C34.0882 115.041 32.4238 113.456 32.4238 111.384C32.4238 109.317 34.0882 107.728 36.0264 107.728C37.9646 107.728 39.629 109.313 39.629 111.384Z" fill="#494748"/>
</svg>
