<svg width="201" height="136" viewBox="0 0 201 136" fill="none" xmlns="http://www.w3.org/2000/svg">
<path d="M127.125 30.9106C124.847 29.489 121.815 29.4032 119.873 31.2569L98.755 51.4093C96.7013 53.3691 96.6761 56.6483 98.8964 58.4171C114.234 70.6357 145.621 83.3821 176.928 58.3908C179.152 56.6154 179.248 53.3089 177.251 51.2817L157.412 31.1479C155.615 29.3237 152.738 29.1808 150.493 30.4134C144.591 33.6541 135.437 36.0986 127.125 30.9106Z" fill="#494748"/>
<path fill-rule="evenodd" clip-rule="evenodd" d="M149.049 27.7839C152.215 26.0453 156.619 26.0698 159.549 29.0424L179.387 49.1763C182.553 52.3885 182.505 57.7778 178.799 60.7356C145.968 86.9432 112.961 73.4577 97.0268 60.7637C93.2276 57.7371 93.4631 52.3123 96.6835 49.2391L117.801 29.0867C121.002 26.0325 125.618 26.4344 128.713 28.3657C135.688 32.7189 143.572 30.7915 149.049 27.7839ZM155.275 33.2536C154.609 32.5779 153.26 32.3165 151.937 33.0432C145.611 36.517 135.186 39.4786 125.536 33.4558C124.075 32.544 122.628 32.7741 121.944 33.4274L100.826 53.5798C99.9388 54.4262 100.124 55.5598 100.765 56.0708C115.506 67.8139 145.273 79.8214 175.056 56.0464C175.799 55.4532 175.943 54.2295 175.114 53.3875L155.275 33.2536Z" fill="#494748"/>
<path fill-rule="evenodd" clip-rule="evenodd" d="M31.4436 123.574C34.3681 126.466 38.5034 127.147 43.7734 127.147H103.426V131.147H43.7734C38.3681 131.147 32.7706 130.511 28.6312 126.418C24.5165 122.35 22.3078 115.337 22.3076 103.845L26.3076 103.845C26.3078 115.02 28.4944 120.658 31.4436 123.574Z" fill="#494748"/>
<path d="M24.5055 103.845L31.0653 97.3387V81.9599C31.0653 76.5722 31.602 75.631 37.327 75.1578L39.1161 70.1301C31.0653 65.4817 17.9456 64.8902 9.59668 70.1302L11.3857 75.1578C16.1565 75.1578 17.9456 75.6849 17.9456 81.9599V97.3387L24.5055 103.845Z" fill="#494748"/>
<path fill-rule="evenodd" clip-rule="evenodd" d="M24.4961 64.4222C30.1039 64.5 35.7443 65.8737 40.1163 68.3981C40.9521 68.8807 41.3241 69.8913 41.0005 70.8006L39.2115 75.8283C38.948 76.5688 38.2752 77.0863 37.492 77.151C36.0819 77.2675 35.1339 77.4039 34.4717 77.5889C33.8329 77.7673 33.6316 77.9452 33.5524 78.0354C33.4686 78.1309 33.3199 78.3586 33.2125 79.014C33.1018 79.6901 33.0655 80.6131 33.0655 81.9599V97.3387C33.0655 97.8719 32.8526 98.3831 32.4739 98.7586L25.9141 105.265C25.1344 106.038 23.877 106.038 23.0973 105.265L16.5374 98.7586C16.1588 98.3831 15.9458 97.8719 15.9458 97.3387V81.9599C15.9458 78.8063 15.4433 77.979 15.1355 77.7088C14.9861 77.5777 14.7076 77.4189 14.0772 77.308C13.4257 77.1934 12.5725 77.1578 11.3859 77.1578C10.5399 77.1578 9.78533 76.6254 9.50168 75.8283L7.71263 70.8007C7.39836 69.9175 7.73969 68.9345 8.5337 68.4362C13.1167 65.5598 18.8905 64.3444 24.4961 64.4222ZM12.0431 71.0388L12.8051 73.1802C13.4945 73.2063 14.1562 73.2605 14.77 73.3684C15.8168 73.5525 16.8801 73.9177 17.7744 74.7027C19.5538 76.2648 19.9458 78.8385 19.9458 81.9599V96.5054L24.5057 101.028L29.0655 96.5054V81.9599C29.0655 80.6129 29.0964 79.3978 29.2651 78.3674C29.4373 77.3162 29.7806 76.2688 30.5466 75.3964C31.3172 74.5186 32.3236 74.0358 33.3955 73.7364C34.1197 73.534 34.9476 73.3957 35.869 73.2899L36.6506 71.0935C33.1755 69.4396 28.8489 68.483 24.4407 68.4218C19.9836 68.36 15.5994 69.215 12.0431 71.0388Z" fill="#494748"/>
<path fill-rule="evenodd" clip-rule="evenodd" d="M19.4163 42.3603C12.2889 43.4034 6.91093 46.9851 4.20103 49.8664C3.44428 50.671 2.17854 50.7098 1.37393 49.9531C0.569316 49.1963 0.530514 47.9306 1.28726 47.126C4.56333 43.6427 10.7437 39.5869 18.837 38.4025C27.0036 37.2072 36.9715 38.9574 47.686 46.8887C48.5738 47.5459 48.7608 48.7983 48.1036 49.6861C47.4464 50.5739 46.194 50.7609 45.3062 50.1037C35.3854 42.76 26.4704 41.3279 19.4163 42.3603Z" fill="#494748"/>
<path fill-rule="evenodd" clip-rule="evenodd" d="M20.7368 50.1879C15.4374 50.9543 11.4509 53.5864 9.46429 55.6736C8.70275 56.4736 7.4368 56.5049 6.63673 55.7433C5.83665 54.9818 5.80542 53.7158 6.56696 52.9157C9.12392 50.2294 13.9106 47.1335 20.1643 46.2291C26.4894 45.3144 34.1775 46.6621 42.4057 52.6804C43.2972 53.3325 43.4913 54.5838 42.8392 55.4754C42.1871 56.3669 40.9357 56.561 40.0442 55.9089C32.6094 50.4709 25.9647 49.4319 20.7368 50.1879Z" fill="#494748"/>
<path fill-rule="evenodd" clip-rule="evenodd" d="M22.0873 57.5036C18.6691 58.0468 16.0817 59.9204 14.7979 61.4025C14.0747 62.2374 12.8116 62.3279 11.9767 61.6047C11.1418 60.8815 11.0513 59.6184 11.7745 58.7835C13.5918 56.6856 16.9924 54.2631 21.4596 53.5532C26.0138 52.8295 31.4648 53.92 37.2058 58.5341C38.0667 59.2261 38.2037 60.485 37.5117 61.3459C36.8198 62.2069 35.5609 62.3439 34.6999 61.6519C29.7503 57.6738 25.4186 56.9743 22.0873 57.5036Z" fill="#494748"/>
<path fill-rule="evenodd" clip-rule="evenodd" d="M33.3257 79.8816C25.3705 75.0466 18.1999 78.0687 15.0488 79.8925L14.0469 78.1616C17.4452 76.1946 25.4785 72.7718 34.3645 78.1725L33.3257 79.8816Z" fill="white"/>
<path fill-rule="evenodd" clip-rule="evenodd" d="M32.5423 99.2479C24.6821 95.9838 18.937 98.0272 15.8341 99.2543L15.0986 97.3944C18.3861 96.0943 24.7372 93.8411 33.3094 97.4008L32.5423 99.2479Z" fill="white"/>
<rect x="73.2178" y="3" width="124.729" height="94.6822" rx="6" stroke="#494748" stroke-width="6" stroke-linejoin="round"/>
<rect x="103.426" y="122.294" width="69.0543" height="13.7054" rx="6" fill="#494748"/>
<rect x="149.286" y="97.5193" width="27.938" height="22.6667" transform="rotate(90 149.286 97.5193)" fill="#494748"/>
</svg>
