<svg width="39" height="36" viewBox="0 0 39 36" fill="none" xmlns="http://www.w3.org/2000/svg">
<rect x="36.9545" y="34.5" width="34.6364" height="33" rx="16.5" transform="rotate(-180 36.9545 34.5)" fill="#0C7633" stroke="#0C7633" stroke-width="3"/>
<path d="M25.2726 25.1814L25.2726 10.4541C25.2721 10.305 25.2293 10.1588 25.1487 10.0313C25.0681 9.90387 24.9528 9.79991 24.8153 9.73064C24.6777 9.66138 24.5231 9.62944 24.3681 9.63826C24.213 9.64709 24.0634 9.69634 23.9354 9.78071L12.8558 17.1443C12.3964 17.4495 12.3964 18.1843 12.8558 18.4903L23.9354 25.8539C24.0632 25.9391 24.2128 25.9891 24.3681 25.9984C24.5235 26.0077 24.6784 25.976 24.8163 25.9067C24.9541 25.8373 25.0695 25.7331 25.15 25.6052C25.2304 25.4773 25.2728 25.3307 25.2726 25.1814Z" fill="white"/>
</svg>
