<svg width="39" height="36" viewBox="0 0 39 36" fill="none" xmlns="http://www.w3.org/2000/svg">
<rect x="2.31812" y="1.5" width="34.6364" height="33" rx="16.5" fill="#0C7633" stroke="#0C7633" stroke-width="3"/>
<path d="M14 10.8187L14 25.5459C14.0005 25.695 14.0433 25.8412 14.1239 25.9687C14.2045 26.0961 14.3197 26.2001 14.4573 26.2694C14.5948 26.3386 14.7495 26.3706 14.9045 26.3617C15.0596 26.3529 15.2092 26.3037 15.3372 26.2193L26.4168 18.8557C26.8761 18.5505 26.8761 17.8157 26.4168 17.5097L15.3372 10.1461C15.2094 10.0609 15.0597 10.0109 14.9044 10.0016C14.7491 9.99228 14.5941 10.024 14.4563 10.0933C14.3185 10.1627 14.2031 10.2669 14.1226 10.3948C14.0422 10.5227 13.9998 10.6693 14 10.8187Z" fill="white"/>
</svg>
