<svg width="20" height="16" viewBox="0 0 20 16" fill="none" xmlns="http://www.w3.org/2000/svg">
<path d="M18.9994 0.208302L0.999427 0.208301C0.817186 0.208896 0.638551 0.261254 0.482751 0.359737C0.326951 0.45822 0.199886 0.599097 0.115232 0.767209C0.030578 0.935322 -0.00845781 1.1243 0.00232442 1.3138C0.0131066 1.50331 0.0733006 1.68616 0.176427 1.84268L9.17643 15.3843C9.54943 15.9458 10.4474 15.9458 10.8214 15.3843L19.8214 1.84268C19.9256 1.68649 19.9867 1.50354 19.9981 1.31372C20.0094 1.12391 19.9706 0.934471 19.8859 0.766004C19.8012 0.597535 19.6738 0.456476 19.5175 0.358152C19.3612 0.259829 19.182 0.208003 18.9994 0.208302Z" fill="#0C7633"/>
</svg>
