<svg width="32" height="24" viewBox="0 0 32 24" fill="none" xmlns="http://www.w3.org/2000/svg">
<path d="M0 0.972983C0 0.714933 0.105357 0.467451 0.292893 0.284981C0.48043 0.102512 0.734784 1.98759e-06 1 1.98759e-06H10.996C13.084 1.98759e-06 14.9227 1.03785 15.9973 2.61278C16.5442 1.80885 17.2875 1.14939 18.1605 0.69342C19.0335 0.237453 20.0091 -0.000793915 21 1.98759e-06H31C31.2652 1.98759e-06 31.5196 0.102512 31.7071 0.284981C31.8946 0.467451 32 0.714933 32 0.972983V20.5143C31.9997 20.6426 31.9733 20.7695 31.9225 20.8878C31.8717 21.0061 31.7975 21.1135 31.704 21.2039C31.6105 21.2942 31.4996 21.3658 31.3777 21.4144C31.2557 21.4631 31.1251 21.4878 30.9933 21.4873L20.7507 21.4199C20.2208 21.4162 19.6955 21.515 19.2052 21.7105C18.7149 21.9061 18.2694 22.1945 17.8947 22.5589L16.708 23.7148C16.6151 23.8052 16.5049 23.8769 16.3835 23.9259C16.2621 23.9748 16.132 24 16.0007 24C15.8693 24 15.7392 23.9748 15.6178 23.9259C15.4965 23.8769 15.3862 23.8052 15.2933 23.7148L14.0907 22.5459C13.7195 22.1843 13.2787 21.8974 12.7934 21.7017C12.3081 21.506 11.788 21.4054 11.2627 21.4056H1C0.734784 21.4056 0.48043 21.3031 0.292893 21.1206C0.105357 20.9381 0 20.6907 0 20.4326L0 0.972983ZM17 20.7336C18.071 19.9095 19.3986 19.4651 20.764 19.4739L30 19.5349V1.94596H21C19.9391 1.94596 18.9217 2.35601 18.1716 3.08588C17.4214 3.81576 17 4.80569 17 5.83789V20.7336ZM14.996 5.834C14.9949 4.80247 14.573 3.81354 13.823 3.08451C13.073 2.35547 12.0562 1.94596 10.996 1.94596H2V19.4596H11.2627C12.62 19.4596 13.9373 19.9085 15 20.731L14.996 5.834Z" fill="#494748"/>
</svg>
