<svg width="133" height="135" viewBox="0 0 133 135" fill="none" xmlns="http://www.w3.org/2000/svg">
<path d="M1.75 40.5C1.75 30.7358 4.96235 20.9904 10.5328 13.7206C16.0892 6.46931 23.9234 1.75 33.25 1.75C42.9669 1.75 47.731 3.38073 51.7104 4.99645C52.1235 5.16415 52.5315 5.3334 52.9385 5.50222C56.5947 7.01879 60.1657 8.5 66.5 8.5C72.8343 8.5 76.4053 7.01879 80.0615 5.50222C80.4685 5.3334 80.8765 5.16415 81.2896 4.99645C85.2691 3.38073 90.0331 1.75 99.75 1.75C109.077 1.75 116.911 6.46931 122.467 13.7206C128.038 20.9904 131.25 30.7358 131.25 40.5C131.25 47.3848 129.635 55.6315 127.183 63.0076C124.713 70.4385 121.49 76.6894 118.453 79.7718C117.38 80.8616 116.444 82.5973 115.589 84.5594C114.712 86.5729 113.834 89.0335 112.946 91.7392C112.093 94.3368 111.217 97.1995 110.312 100.156L110.195 100.54C109.246 103.64 108.264 106.84 107.231 109.985C105.157 116.301 102.916 122.272 100.413 126.642C99.1622 128.827 97.8959 130.519 96.6258 131.649C95.3676 132.768 94.2054 133.25 93.1 133.25C86.1099 133.25 82.0743 130.568 79.5459 126.666C76.9177 122.609 75.8097 117.065 75.2067 111.196C74.9649 108.843 74.8084 106.494 74.656 104.206C74.6196 103.661 74.5835 103.118 74.5465 102.58C74.3564 99.8155 74.1425 97.15 73.7465 94.8374C73.356 92.557 72.7574 90.4106 71.6748 88.8028C70.5159 87.0816 68.8067 86 66.5 86C64.1933 86 62.4841 87.0816 61.3252 88.8028C60.2426 90.4106 59.644 92.557 59.2535 94.8374C58.8575 97.15 58.6437 99.8155 58.4535 102.58C58.4165 103.118 58.3804 103.661 58.344 104.207C58.1915 106.494 58.0351 108.843 57.7933 111.196C57.1903 117.065 56.0823 122.609 53.4541 126.666C50.9257 130.568 46.8901 133.25 39.9 133.25C38.7946 133.25 37.6324 132.768 36.3742 131.649C35.1041 130.519 33.8378 128.827 32.5865 126.642C30.0837 122.272 27.843 116.301 25.7689 109.985C24.7362 106.84 23.7539 103.64 22.8053 100.54L22.6878 100.156C21.7831 97.1996 20.9071 94.3368 20.054 91.7392C19.1655 89.0335 18.2882 86.5729 17.4111 84.5594C16.5564 82.5973 15.6203 80.8616 14.5466 79.7718C11.5099 76.6894 8.28736 70.4385 5.81688 63.0076C3.36464 55.6315 1.75 47.3848 1.75 40.5ZM66.5 18.5C60.1668 18.5 55.4231 16.9047 50.4359 15.2173L50.3747 15.1966C45.4053 13.5152 40.1883 11.75 33.25 11.75C26.9441 11.75 21.4862 15.5758 17.6842 20.9235C13.8713 26.2864 11.55 33.3918 11.55 40.5C11.55 46.6548 13.0325 53.7918 15.2998 60.1872C17.5557 66.5507 20.6709 72.4128 24.0899 75.8832C24.5837 76.3844 25.2382 77.4228 26.0114 79.0632C26.7625 80.6569 27.5544 82.6609 28.3728 84.9495C30.0095 89.5266 31.7049 95.1064 33.3538 100.558L33.5165 101.097C35.0996 106.332 36.6398 111.426 38.0166 115.248C38.7256 117.217 39.4176 118.923 40.0775 120.161C40.4035 120.772 40.7652 121.353 41.1696 121.805C41.5141 122.189 42.2099 122.845 43.225 122.845C44.1605 122.845 44.7847 122.266 45.0849 121.924C45.4251 121.536 45.6971 121.057 45.919 120.582C46.3702 119.617 46.7754 118.317 47.1173 116.818C47.8061 113.801 48.3 109.704 48.3 105.232C48.3 98.4557 49.2407 91.0235 52.0351 85.3508C53.4221 82.5349 55.237 80.2113 57.5652 78.591C59.8776 76.9816 62.7898 76 66.5 76C70.2102 76 73.1224 76.9816 75.4348 78.591C77.763 80.2113 79.5779 82.5349 80.9649 85.3508C83.7593 91.0235 84.7 98.4557 84.7 105.232C84.7 109.704 85.1939 113.801 85.8827 116.818C86.2246 118.317 86.6298 119.617 87.081 120.582C87.3029 121.057 87.5749 121.536 87.9151 121.924C88.2153 122.266 88.8395 122.845 89.775 122.845C90.7901 122.845 91.4859 122.189 91.8304 121.805C92.2348 121.353 92.5965 120.772 92.9225 120.161C93.5824 118.923 94.2744 117.217 94.9834 115.248C96.3602 111.426 97.9004 106.332 99.4835 101.097L99.6462 100.558C101.295 95.1064 102.99 89.5266 104.627 84.9495C105.446 82.6609 106.237 80.6569 106.989 79.0632C107.762 77.4228 108.416 76.3844 108.91 75.8832C112.329 72.4128 115.444 66.5507 117.7 60.1872C119.967 53.7918 121.45 46.6548 121.45 40.5C121.45 33.3918 119.129 26.2864 115.316 20.9235C111.514 15.5758 106.056 11.75 99.75 11.75C92.8117 11.75 87.5947 13.5152 82.6253 15.1966L82.5641 15.2173C77.5769 16.9047 72.8332 18.5 66.5 18.5Z" fill="#494748" stroke="white" stroke-width="3.5"/>
</svg>
