<svg width="133" height="79" viewBox="0 0 133 79" fill="none" xmlns="http://www.w3.org/2000/svg">
<path d="M66.5 0C36.2727 0 10.4586 16.3793 0 39.5C10.4586 62.6207 36.2727 79 66.5 79C96.7273 79 122.541 62.6207 133 39.5C122.541 16.3793 96.7273 0 66.5 0ZM66.5 65.8333C49.8145 65.8333 36.2727 54.036 36.2727 39.5C36.2727 24.964 49.8145 13.1667 66.5 13.1667C83.1855 13.1667 96.7273 24.964 96.7273 39.5C96.7273 54.036 83.1855 65.8333 66.5 65.8333ZM66.5 23.7C56.4645 23.7 48.3636 30.7573 48.3636 39.5C48.3636 48.2427 56.4645 55.3 66.5 55.3C76.5355 55.3 84.6364 48.2427 84.6364 39.5C84.6364 30.7573 76.5355 23.7 66.5 23.7Z" fill="#494748"/>
</svg>
