<svg width="129" height="138" viewBox="0 0 129 138" fill="none" xmlns="http://www.w3.org/2000/svg">
<path d="M98.1623 24.6433V24.6429C98.1623 23.6024 97.7471 22.6037 97.0066 21.8666C96.266 21.1293 95.2605 20.7143 94.2111 20.7143C93.1618 20.7143 92.1563 21.1293 91.4156 21.8666C90.6752 22.6037 90.26 23.6024 90.26 24.6429C90.26 26.2167 89.6319 27.7251 88.5153 28.8366C87.3989 29.9479 85.8857 30.5714 84.3088 30.5714C82.732 30.5714 81.2188 29.9479 80.1024 28.8366C78.9858 27.7251 78.3577 26.2167 78.3577 24.6429V14.7857C78.3577 13.2119 78.9858 11.7034 80.1024 10.592C81.2188 9.48065 82.732 8.85714 84.3088 8.85714H96.419C96.4191 8.85714 96.4192 8.85714 96.4193 8.85714C97.4956 8.85683 98.5521 9.14731 99.4761 9.69797L99.4769 9.69843L117.073 20.2059C117.955 20.732 118.685 21.477 119.193 22.3687C119.7 23.2604 119.967 24.2681 119.967 25.2934C119.967 25.2935 119.967 25.2936 119.967 25.2936V34.5C119.967 36.0738 119.339 37.5823 118.222 38.6937C117.106 39.8051 115.593 40.4286 114.016 40.4286H104.113C103.064 40.4286 102.059 40.8436 101.318 41.5808C100.577 42.3179 100.162 43.3167 100.162 44.3571V113.357C100.162 114.398 100.577 115.396 101.318 116.133C102.058 116.871 103.064 117.286 104.113 117.286C104.113 117.286 104.113 117.286 104.113 117.286V118.286C107.186 118.284 110.184 119.231 112.694 120.997C114.908 122.555 116.646 124.682 117.728 127.143L98.1623 24.6433ZM98.1623 24.6433C98.1633 26.9151 97.6001 29.1522 96.5225 31.1554C95.4449 33.1586 93.8863 34.8661 91.9849 36.1255C90.0834 37.3849 87.8983 38.1571 85.6241 38.3729C83.3498 38.5887 81.0573 38.2415 78.9507 37.3623L77.7203 36.8488L77.5718 38.1738C76.7084 45.8766 74.7022 53.4095 71.6186 60.5267M98.1623 24.6433L71.6186 60.5267M71.6186 60.5267C67.6107 69.6408 62.3436 76.1527 57.5526 81.4702L57.5518 81.4711C53.9382 85.4921 51.6589 91.1889 50.3242 97.8222L71.6186 60.5267ZM37.9059 125.07L37.9029 125.074C35.986 127.451 33.3236 129.143 29.8463 129.143H27.3714H27.3707V128.143L37.9059 125.07ZM37.9059 125.07C38.9186 123.802 39.6231 122.46 40.0761 121.276C40.5221 120.11 40.7486 119.032 40.7486 118.286C40.7486 111.412 41.0946 103.632 42.5708 96.2745C44.0485 88.9693 46.7304 81.724 51.6525 76.2429C56.2089 71.1811 60.852 65.3733 64.3988 57.3593L64.3997 57.3572M37.9059 125.07L64.3997 57.3572M64.3997 57.3572C67.9171 49.3614 70.4554 38.9413 70.4554 24.6429V14.7857C70.4554 11.131 71.9139 7.62503 74.5114 5.03936C77.1091 2.45352 80.6332 1 84.3088 1H96.4193C98.932 1.00024 101.397 1.68056 103.551 2.9678L103.551 2.968L121.147 13.4756L64.3997 57.3572Z" fill="#494748" stroke="white" stroke-width="2"/>
<path d="M96.8838 55.3086C96.8838 50.338 92.8544 46.3086 87.8838 46.3086H45.3262C40.3557 46.3086 36.3262 50.338 36.3262 55.3086V83.6173C36.3262 88.5879 40.3557 92.6173 45.3262 92.6173H87.8838C92.8544 92.6173 96.8838 88.5879 96.8838 83.6173V55.3086Z" fill="#494748"/>
<path fill-rule="evenodd" clip-rule="evenodd" d="M45.3262 52.3086H87.8838C89.5406 52.3086 90.8838 53.6517 90.8838 55.3086V83.6173C90.8838 85.2742 89.5406 86.6173 87.8838 86.6173H45.3262C43.6694 86.6173 42.3262 85.2742 42.3262 83.6173V55.3086C42.3262 53.6517 43.6694 52.3086 45.3262 52.3086ZM87.8838 46.3086C92.8544 46.3086 96.8838 50.338 96.8838 55.3086V83.6173C96.8838 88.5879 92.8544 92.6173 87.8838 92.6173H45.3262C40.3557 92.6173 36.3262 88.5879 36.3262 83.6173V55.3086C36.3262 50.338 40.3557 46.3086 45.3262 46.3086H87.8838Z" fill="#494748"/>
<path fill-rule="evenodd" clip-rule="evenodd" d="M76.9948 52.0925C76.2544 51.2728 74.9897 51.2086 74.1701 51.949C68.7527 56.8427 56.5362 70.342 50.8404 85.502C50.4519 86.536 50.9752 87.6892 52.0092 88.0777C53.0432 88.4662 54.1963 87.9429 54.5848 86.9089C59.9706 72.5738 71.6873 59.5822 76.8514 54.9172C77.671 54.1768 77.7353 52.9121 76.9948 52.0925Z" fill="white"/>
<path fill-rule="evenodd" clip-rule="evenodd" d="M66.3759 52.1714C65.6791 51.3144 64.4194 51.1846 63.5624 51.8814C51.8129 61.4352 46.3343 71.3884 43.6261 85.1057C43.4122 86.1893 44.1172 87.2412 45.2008 87.4552C46.2845 87.6691 47.3364 86.9641 47.5503 85.8804C50.0883 73.0256 55.102 63.9162 66.0859 54.9849C66.9429 54.2881 67.0728 53.0284 66.3759 52.1714Z" fill="white"/>
<path fill-rule="evenodd" clip-rule="evenodd" d="M70.8225 56.7678C69.91 57.3902 69.6747 58.6345 70.2971 59.547C76.2753 68.3125 83.5401 70.3694 86.4533 71.0537C87.5286 71.3063 88.6051 70.6394 88.8577 69.5641C89.1103 68.4888 88.4433 67.4123 87.368 67.1597C84.9617 66.5945 78.7945 64.9071 73.6017 57.2932C72.9793 56.3807 71.735 56.1454 70.8225 56.7678Z" fill="white"/>
<path fill-rule="evenodd" clip-rule="evenodd" d="M64.5712 63.7934C63.6041 64.327 63.2527 65.5436 63.7863 66.5107C66.7893 71.9534 71.788 75.939 76.2492 78.6157C80.7054 81.2895 84.8611 82.7964 86.4592 83.1667C87.5353 83.416 88.6097 82.7458 88.8591 81.6697C89.1084 80.5937 88.4382 79.5192 87.3622 79.2699C86.2462 79.0113 82.4778 77.6882 78.3072 75.1858C74.1415 72.6863 69.8106 69.1494 67.2886 64.5784C66.755 63.6112 65.5384 63.2598 64.5712 63.7934Z" fill="white"/>
<path fill-rule="evenodd" clip-rule="evenodd" d="M57.1606 73.2459C56.2988 73.9369 56.1604 75.1956 56.8513 76.0574C63.1974 83.9718 72.1601 86.7795 75.0652 87.4427C76.1421 87.6885 77.2143 87.0148 77.4601 85.938C77.706 84.8611 77.0323 83.7888 75.9554 83.543C73.4508 82.9713 65.5081 80.4594 59.972 73.5551C59.2811 72.6933 58.0223 72.5549 57.1606 73.2459Z" fill="white"/>
</svg>
