<svg width="104" height="134" viewBox="0 0 104 134" fill="none" xmlns="http://www.w3.org/2000/svg">
<path d="M22.6 32.4H42.2M22.6 66.7H81.4M22.6 86.3H81.4M22.6 105.9H42.2M12.8 130.4H91.2C93.7991 130.4 96.2918 129.368 98.1296 127.53C99.9675 125.692 101 123.199 101 120.6V12.8C101 10.2009 99.9675 7.70821 98.1296 5.87035C96.2918 4.0325 93.7991 3 91.2 3H12.8C10.2009 3 7.70821 4.0325 5.87035 5.87035C4.0325 7.70821 3 10.2009 3 12.8V120.6C3 123.199 4.0325 125.692 5.87035 127.53C7.70821 129.368 10.2009 130.4 12.8 130.4Z" stroke="#494748" stroke-width="6" stroke-linecap="round" stroke-linejoin="round"/>
<path d="M81.3992 34.85C82.7523 34.85 83.8492 33.753 83.8492 32.4C83.8492 31.0469 82.7523 29.95 81.3992 29.95C80.0461 29.95 78.9492 31.0469 78.9492 32.4C78.9492 33.753 80.0461 34.85 81.3992 34.85Z" fill="black" stroke="#494748" stroke-width="6"/>
</svg>
