<svg width="72" height="72" viewBox="0 0 72 72" fill="none" xmlns="http://www.w3.org/2000/svg">
<rect x="13" y="12" width="44" height="46" fill="#F3F9F5"/>
<path d="M29.0861 31.2824C28.8622 31.5677 28.5238 31.9567 28.2547 32.2604C28.1174 32.4154 27.9932 32.5536 27.9033 32.6532C27.8583 32.703 27.8218 32.7432 27.7965 32.7711L27.7961 32.7715C27.7911 32.7803 27.7851 32.7918 27.7797 32.8048C27.7737 32.819 27.7706 32.8294 27.769 32.8366C27.8294 32.992 27.9064 33.1406 27.9988 33.2797L28.0071 33.2923L28.0151 33.3052L28.2275 33.6472L28.2317 33.6539L28.2317 33.6539C29.208 35.2541 30.3878 36.7208 31.7417 38.0173L31.7451 38.0206C31.8747 38.1459 31.9979 38.267 32.1177 38.3846C32.4236 38.6851 32.7068 38.9632 33.0145 39.2319L33.0182 39.2351C34.622 40.6492 36.4359 41.8055 38.3948 42.6625L38.3981 42.6639L38.4121 42.6695L38.4259 42.6755C38.5203 42.7165 38.5988 42.7511 38.6739 42.7842C38.8525 42.8629 39.0122 42.9332 39.3207 43.0626L39.3272 43.0653C39.5047 43.1412 39.6874 43.2045 39.8738 43.2547C39.9229 43.2667 39.9745 43.2641 40.0222 43.2473C40.0709 43.2301 40.1134 43.1988 40.1442 43.1573L40.1592 43.1372L40.1752 43.1178C41.478 41.5393 42.1957 40.6914 42.5925 40.2357C42.7895 40.0095 42.9154 39.8706 42.9985 39.7842C43.0379 39.7431 43.0819 39.6989 43.1271 39.6592C43.1469 39.6419 43.1863 39.608 43.2386 39.5724C43.4991 39.3548 43.7982 39.1873 44.1208 39.0789C44.4816 38.9577 44.8636 38.9132 45.2424 38.948C45.5746 38.9661 45.9009 39.0435 46.206 39.1765L46.2136 39.1798L46.2211 39.1832C47.1707 39.616 48.4267 40.1727 49.4481 40.6225C49.9581 40.8471 50.4086 41.0445 50.7316 41.1858L51.1117 41.3519L51.2141 41.3966L51.2405 41.4081L51.2472 41.411L51.2489 41.4118L51.2493 41.4119L51.2494 41.412L50.85 42.3288L51.2494 41.412L51.2592 41.4163L51.2592 41.4163L53.3544 42.3559L53.3679 42.362L53.3813 42.3684C53.7146 42.5299 54.0037 42.7826 54.2158 43.0685C54.4247 43.3499 54.6104 43.7347 54.6283 44.1802C54.6289 44.1925 54.6295 44.2052 54.6301 44.2183C54.6424 44.4845 54.663 44.9311 54.5715 45.6855L54.5713 45.6878C54.4493 46.6752 54.1498 47.9132 53.8041 48.6356M29.0861 31.2824L52.902 48.204M29.0861 31.2824C29.4462 30.8244 29.7821 30.3479 30.0926 29.8549L30.0926 29.8549L30.0959 29.8496C30.61 29.0218 30.8992 27.9708 30.5067 27.0135C29.4952 24.5426 28.4478 22.083 27.3716 19.6418C27.1577 19.156 26.7718 18.8106 26.4032 18.5866C26.0272 18.3583 25.5903 18.2068 25.1603 18.1555L25.1603 18.1554L25.1521 18.1545L25.1441 18.1536C24.9549 18.1326 24.7451 18.1093 24.5323 18.0935L24.5202 18.0926L24.508 18.092C23.9849 18.066 23.4607 18.0712 22.9382 18.1076L22.0076 18.1724V18.2707L29.0861 31.2824ZM53.8041 48.6356L52.902 48.204M53.8041 48.6356C53.8041 48.6356 53.8041 48.6355 53.8041 48.6354L52.902 48.204M53.8041 48.6356C53.5578 49.1504 53.2359 49.6016 52.8665 49.9847M52.902 48.204C52.704 48.618 52.4448 48.9816 52.146 49.2912M52.8665 49.9847C52.8671 49.984 52.8678 49.9833 52.8684 49.9827L52.146 49.2912M52.8665 49.9847C52.4202 50.4507 52.0781 50.7426 51.5572 51.1286M52.8665 49.9847C52.8662 49.985 52.8659 49.9853 52.8656 49.9856L52.146 49.2912M52.146 49.2912L51.5572 51.1286M51.5572 51.1286C51.5585 51.1276 51.5598 51.1266 51.5611 51.1256L50.958 50.328L51.5532 51.1315C51.5546 51.1305 51.5559 51.1296 51.5572 51.1286ZM51.5572 51.1286C51.4022 51.2457 51.2816 51.3326 51.1971 51.392C51.1779 51.4054 51.1606 51.4175 51.1452 51.4281C51.1263 51.4412 51.1103 51.4521 51.0971 51.461L51.0682 51.4804L51.0592 51.4864L51.056 51.4885L51.0547 51.4893L51.0542 51.4897L51.0539 51.4898L51.0538 51.4899C51.0537 51.4899 51.0537 51.49 50.508 50.652L51.0537 51.49L51.0453 51.4954L51.0452 51.4954C50.5742 51.7954 50.0897 52.0739 49.5933 52.3298M51.5572 51.1286L49.5933 52.3298M49.5933 52.3298C49.5953 52.3287 49.5973 52.3276 49.5994 52.3266L49.1292 51.444L49.5871 52.333C49.5892 52.3319 49.5912 52.3309 49.5933 52.3298ZM1.43866 70.5748L5.84655 54.3778L5.95661 53.9733L5.74542 53.6113C2.62781 48.267 0.989884 42.1888 1.00005 36.0016V36C1.00005 16.6695 16.6695 1 36 1C55.3305 1 71 16.6695 71 36C71 55.3305 55.3305 71 36 71H35.9984C29.814 71.0099 23.7383 69.3733 18.3957 66.2581L18.0334 66.0468L17.6288 66.1572L1.43866 70.5748ZM19.9106 19.5781C19.9049 19.584 19.8992 19.5899 19.8935 19.5958L20.6136 20.2896L19.9281 19.5616C19.9222 19.5671 19.9164 19.5726 19.9106 19.5781ZM27.7673 32.8495C27.7673 32.8495 27.7672 32.8489 27.7673 32.8478C27.7674 32.849 27.7674 32.8496 27.7673 32.8495Z" fill="#0C7633" stroke="#F3F9F5" stroke-width="2"/>
</svg>
